<?xml version="1.0" encoding="UTF-8" standalone="no"?>
<!-- Created with Inkscape (http://www.inkscape.org/) -->

<svg
   xmlns:rendltx="http://NOTSET"
   xmlns:dc="http://purl.org/dc/elements/1.1/"
   xmlns:cc="http://creativecommons.org/ns#"
   xmlns:rdf="http://www.w3.org/1999/02/22-rdf-syntax-ns#"
   xmlns:svg="http://www.w3.org/2000/svg"
   xmlns="http://www.w3.org/2000/svg"
   xmlns:xlink="http://www.w3.org/1999/xlink"
   xmlns:sodipodi="http://sodipodi.sourceforge.net/DTD/sodipodi-0.dtd"
   xmlns:inkscape="http://www.inkscape.org/namespaces/inkscape"
   width="210mm"
   height="297mm"
   viewBox="0 0 210 297"
   version="1.1"
   id="svg8"
   inkscape:export-filename="C:\Users\DELL\OneDrive\libro_mc\estadistica\cuartiles.png"
   inkscape:export-xdpi="84"
   inkscape:export-ydpi="84"
   inkscape:version="0.92.4 (5da689c313, 2019-01-14)"
   sodipodi:docname="cuantiles.svg">
  <defs
     id="defs2">
    <defs
       id="defs5344">
      <g
         id="g5342">
        <symbol
           style="overflow:visible"
           overflow="visible"
           id="lx-text5228-glyph0-0">
          <path
             inkscape:connector-curvature="0"
             style="stroke:none"
             d=""
             id="path5330" />
        </symbol>
        <symbol
           style="overflow:visible"
           overflow="visible"
           id="lx-text5228-glyph0-1">
          <path
             inkscape:connector-curvature="0"
             style="stroke:none"
             d="M 5.078125,-4.03125 C 5.0625,-4.0625 5.03125,-4.140625 5.03125,-4.171875 c 0,0 0.171875,-0.140625 0.28125,-0.21875 l 1.75,-1.34375 C 8,-6.4375 8.390625,-6.46875 8.6875,-6.5 8.765625,-6.515625 8.859375,-6.515625 8.859375,-6.703125 8.859375,-6.734375 8.828125,-6.8125 8.75,-6.8125 c -0.21875,0 -0.46875,0.03125 -0.703125,0.03125 -0.359375,0 -0.75,-0.03125 -1.109375,-0.03125 -0.0625,0 -0.1875,0 -0.1875,0.203125 0,0.0625 0.046875,0.09375 0.125,0.109375 0.21875,0.015625 0.296875,0.0625 0.296875,0.203125 0,0.1875 -0.296875,0.421875 -0.359375,0.46875 L 2.9375,-2.84375 3.734375,-6.046875 C 3.8125,-6.40625 3.84375,-6.5 4.5625,-6.5 c 0.25,0 0.34375,0 0.34375,-0.203125 0,-0.078125 -0.078125,-0.109375 -0.140625,-0.109375 -0.28125,0 -1,0.03125 -1.28125,0.03125 C 3.203125,-6.78125 2.5,-6.8125 2.203125,-6.8125 2.140625,-6.8125 2,-6.8125 2,-6.625 2,-6.5 2.09375,-6.5 2.296875,-6.5 c 0.125,0 0.3125,0.015625 0.421875,0.015625 0.15625,0.03125 0.21875,0.046875 0.21875,0.171875 0,0.03125 0,0.0625 -0.03125,0.1875 L 1.5625,-0.78125 c -0.09375,0.390625 -0.109375,0.46875 -0.90625,0.46875 -0.171875,0 -0.28125,0 -0.28125,0.1875 C 0.375,0 0.5,0 0.53125,0 0.8125,0 1.515625,-0.03125 1.796875,-0.03125 2,-0.03125 2.21875,-0.015625 2.4375,-0.015625 2.65625,-0.015625 2.875,0 3.078125,0 3.15625,0 3.28125,0 3.28125,-0.203125 3.28125,-0.3125 3.1875,-0.3125 3,-0.3125 c -0.375,0 -0.640625,0 -0.640625,-0.171875 0,-0.078125 0.046875,-0.296875 0.078125,-0.4375 C 2.578125,-1.453125 2.71875,-1.96875 2.84375,-2.5 l 1.484375,-1.15625 1.15625,2.6875 c 0.125,0.265625 0.125,0.296875 0.125,0.34375 0,0.3125 -0.4375,0.3125 -0.53125,0.3125 -0.109375,0 -0.21875,0 -0.21875,0.203125 C 4.859375,0 4.984375,0 5,0 5.40625,0 5.828125,-0.03125 6.21875,-0.03125 6.4375,-0.03125 6.984375,0 7.203125,0 7.25,0 7.375,0 7.375,-0.203125 7.375,-0.3125 7.265625,-0.3125 7.171875,-0.3125 c -0.40625,0 -0.53125,-0.09375 -0.6875,-0.4375 z m 0,0"
             id="path5333" />
        </symbol>
        <symbol
           style="overflow:visible"
           overflow="visible"
           id="lx-text5228-glyph1-0">
          <path
             inkscape:connector-curvature="0"
             style="stroke:none"
             d=""
             id="path5336" />
        </symbol>
        <symbol
           style="overflow:visible"
           overflow="visible"
           id="lx-text5228-glyph1-1">
          <path
             inkscape:connector-curvature="0"
             style="stroke:none"
             d="m 3.6875,-1.140625 v -0.25 H 2.90625 V -4.5 c 0,-0.140625 0,-0.203125 -0.140625,-0.203125 -0.09375,0 -0.125,0 -0.1875,0.109375 l -2.3125,3.203125 v 0.25 h 2.0625 v 0.5625 c 0,0.25 0,0.328125 -0.578125,0.328125 H 1.5625 V 0 C 1.921875,-0.015625 2.359375,-0.03125 2.609375,-0.03125 2.875,-0.03125 3.3125,-0.015625 3.671875,0 v -0.25 h -0.1875 C 2.90625,-0.25 2.90625,-0.328125 2.90625,-0.578125 v -0.5625 z M 2.375,-3.9375 v 2.546875 H 0.53125 Z m 0,0"
             id="path5339" />
        </symbol>
      </g>
    </defs>
    <defs
       id="defs5318">
      <g
         id="g5316">
        <symbol
           style="overflow:visible"
           overflow="visible"
           id="lx-text5198-glyph0-0">
          <path
             inkscape:connector-curvature="0"
             style="stroke:none"
             d=""
             id="path5304" />
        </symbol>
        <symbol
           style="overflow:visible"
           overflow="visible"
           id="lx-text5198-glyph0-1">
          <path
             inkscape:connector-curvature="0"
             style="stroke:none"
             d="M 5.078125,-4.03125 C 5.0625,-4.0625 5.03125,-4.140625 5.03125,-4.171875 c 0,0 0.171875,-0.140625 0.28125,-0.21875 l 1.75,-1.34375 C 8,-6.4375 8.390625,-6.46875 8.6875,-6.5 8.765625,-6.515625 8.859375,-6.515625 8.859375,-6.703125 8.859375,-6.734375 8.828125,-6.8125 8.75,-6.8125 c -0.21875,0 -0.46875,0.03125 -0.703125,0.03125 -0.359375,0 -0.75,-0.03125 -1.109375,-0.03125 -0.0625,0 -0.1875,0 -0.1875,0.203125 0,0.0625 0.046875,0.09375 0.125,0.109375 0.21875,0.015625 0.296875,0.0625 0.296875,0.203125 0,0.1875 -0.296875,0.421875 -0.359375,0.46875 L 2.9375,-2.84375 3.734375,-6.046875 C 3.8125,-6.40625 3.84375,-6.5 4.5625,-6.5 c 0.25,0 0.34375,0 0.34375,-0.203125 0,-0.078125 -0.078125,-0.109375 -0.140625,-0.109375 -0.28125,0 -1,0.03125 -1.28125,0.03125 C 3.203125,-6.78125 2.5,-6.8125 2.203125,-6.8125 2.140625,-6.8125 2,-6.8125 2,-6.625 2,-6.5 2.09375,-6.5 2.296875,-6.5 c 0.125,0 0.3125,0.015625 0.421875,0.015625 0.15625,0.03125 0.21875,0.046875 0.21875,0.171875 0,0.03125 0,0.0625 -0.03125,0.1875 L 1.5625,-0.78125 c -0.09375,0.390625 -0.109375,0.46875 -0.90625,0.46875 -0.171875,0 -0.28125,0 -0.28125,0.1875 C 0.375,0 0.5,0 0.53125,0 0.8125,0 1.515625,-0.03125 1.796875,-0.03125 2,-0.03125 2.21875,-0.015625 2.4375,-0.015625 2.65625,-0.015625 2.875,0 3.078125,0 3.15625,0 3.28125,0 3.28125,-0.203125 3.28125,-0.3125 3.1875,-0.3125 3,-0.3125 c -0.375,0 -0.640625,0 -0.640625,-0.171875 0,-0.078125 0.046875,-0.296875 0.078125,-0.4375 C 2.578125,-1.453125 2.71875,-1.96875 2.84375,-2.5 l 1.484375,-1.15625 1.15625,2.6875 c 0.125,0.265625 0.125,0.296875 0.125,0.34375 0,0.3125 -0.4375,0.3125 -0.53125,0.3125 -0.109375,0 -0.21875,0 -0.21875,0.203125 C 4.859375,0 4.984375,0 5,0 5.40625,0 5.828125,-0.03125 6.21875,-0.03125 6.4375,-0.03125 6.984375,0 7.203125,0 7.25,0 7.375,0 7.375,-0.203125 7.375,-0.3125 7.265625,-0.3125 7.171875,-0.3125 c -0.40625,0 -0.53125,-0.09375 -0.6875,-0.4375 z m 0,0"
             id="path5307" />
        </symbol>
        <symbol
           style="overflow:visible"
           overflow="visible"
           id="lx-text5198-glyph1-0">
          <path
             inkscape:connector-curvature="0"
             style="stroke:none"
             d=""
             id="path5310" />
        </symbol>
        <symbol
           style="overflow:visible"
           overflow="visible"
           id="lx-text5198-glyph1-1">
          <path
             inkscape:connector-curvature="0"
             style="stroke:none"
             d="m 1.90625,-2.328125 c 0.546875,0 0.9375,0.375 0.9375,1.125 0,0.859375 -0.515625,1.125 -0.90625,1.125 -0.28125,0 -0.90625,-0.078125 -1.1875,-0.5 0.328125,0 0.40625,-0.234375 0.40625,-0.390625 0,-0.21875 -0.171875,-0.375 -0.390625,-0.375 -0.1875,0 -0.390625,0.125 -0.390625,0.40625 0,0.65625 0.71875,1.078125 1.5625,1.078125 0.96875,0 1.640625,-0.65625 1.640625,-1.34375 0,-0.546875 -0.4375,-1.09375 -1.203125,-1.25 0.71875,-0.265625 0.984375,-0.78125 0.984375,-1.21875 0,-0.546875 -0.625,-0.953125 -1.40625,-0.953125 -0.765625,0 -1.359375,0.375 -1.359375,0.9375 0,0.234375 0.15625,0.359375 0.359375,0.359375 0.21875,0 0.359375,-0.15625 0.359375,-0.34375 0,-0.203125 -0.140625,-0.359375 -0.359375,-0.375 0.25,-0.296875 0.71875,-0.375 0.984375,-0.375 0.3125,0 0.75,0.15625 0.75,0.75 0,0.296875 -0.09375,0.625 -0.28125,0.828125 -0.21875,0.265625 -0.421875,0.28125 -0.765625,0.3125 -0.171875,0.015625 -0.1875,0.015625 -0.21875,0.015625 -0.015625,0 -0.078125,0.015625 -0.078125,0.09375 0,0.09375 0.0625,0.09375 0.1875,0.09375 z m 0,0"
             id="path5313" />
        </symbol>
      </g>
    </defs>
    <defs
       id="defs5292">
      <g
         id="g5290">
        <symbol
           style="overflow:visible"
           overflow="visible"
           id="lx-text5194-glyph0-0">
          <path
             inkscape:connector-curvature="0"
             style="stroke:none"
             d=""
             id="path5278" />
        </symbol>
        <symbol
           style="overflow:visible"
           overflow="visible"
           id="lx-text5194-glyph0-1">
          <path
             inkscape:connector-curvature="0"
             style="stroke:none"
             d="M 5.078125,-4.03125 C 5.0625,-4.0625 5.03125,-4.140625 5.03125,-4.171875 c 0,0 0.171875,-0.140625 0.28125,-0.21875 l 1.75,-1.34375 C 8,-6.4375 8.390625,-6.46875 8.6875,-6.5 8.765625,-6.515625 8.859375,-6.515625 8.859375,-6.703125 8.859375,-6.734375 8.828125,-6.8125 8.75,-6.8125 c -0.21875,0 -0.46875,0.03125 -0.703125,0.03125 -0.359375,0 -0.75,-0.03125 -1.109375,-0.03125 -0.0625,0 -0.1875,0 -0.1875,0.203125 0,0.0625 0.046875,0.09375 0.125,0.109375 0.21875,0.015625 0.296875,0.0625 0.296875,0.203125 0,0.1875 -0.296875,0.421875 -0.359375,0.46875 L 2.9375,-2.84375 3.734375,-6.046875 C 3.8125,-6.40625 3.84375,-6.5 4.5625,-6.5 c 0.25,0 0.34375,0 0.34375,-0.203125 0,-0.078125 -0.078125,-0.109375 -0.140625,-0.109375 -0.28125,0 -1,0.03125 -1.28125,0.03125 C 3.203125,-6.78125 2.5,-6.8125 2.203125,-6.8125 2.140625,-6.8125 2,-6.8125 2,-6.625 2,-6.5 2.09375,-6.5 2.296875,-6.5 c 0.125,0 0.3125,0.015625 0.421875,0.015625 0.15625,0.03125 0.21875,0.046875 0.21875,0.171875 0,0.03125 0,0.0625 -0.03125,0.1875 L 1.5625,-0.78125 c -0.09375,0.390625 -0.109375,0.46875 -0.90625,0.46875 -0.171875,0 -0.28125,0 -0.28125,0.1875 C 0.375,0 0.5,0 0.53125,0 0.8125,0 1.515625,-0.03125 1.796875,-0.03125 2,-0.03125 2.21875,-0.015625 2.4375,-0.015625 2.65625,-0.015625 2.875,0 3.078125,0 3.15625,0 3.28125,0 3.28125,-0.203125 3.28125,-0.3125 3.1875,-0.3125 3,-0.3125 c -0.375,0 -0.640625,0 -0.640625,-0.171875 0,-0.078125 0.046875,-0.296875 0.078125,-0.4375 C 2.578125,-1.453125 2.71875,-1.96875 2.84375,-2.5 l 1.484375,-1.15625 1.15625,2.6875 c 0.125,0.265625 0.125,0.296875 0.125,0.34375 0,0.3125 -0.4375,0.3125 -0.53125,0.3125 -0.109375,0 -0.21875,0 -0.21875,0.203125 C 4.859375,0 4.984375,0 5,0 5.40625,0 5.828125,-0.03125 6.21875,-0.03125 6.4375,-0.03125 6.984375,0 7.203125,0 7.25,0 7.375,0 7.375,-0.203125 7.375,-0.3125 7.265625,-0.3125 7.171875,-0.3125 c -0.40625,0 -0.53125,-0.09375 -0.6875,-0.4375 z m 0,0"
             id="path5281" />
        </symbol>
        <symbol
           style="overflow:visible"
           overflow="visible"
           id="lx-text5194-glyph1-0">
          <path
             inkscape:connector-curvature="0"
             style="stroke:none"
             d=""
             id="path5284" />
        </symbol>
        <symbol
           style="overflow:visible"
           overflow="visible"
           id="lx-text5194-glyph1-1">
          <path
             inkscape:connector-curvature="0"
             style="stroke:none"
             d="M 3.515625,-1.265625 H 3.28125 c -0.015625,0.15625 -0.09375,0.5625 -0.1875,0.625 C 3.046875,-0.59375 2.515625,-0.59375 2.40625,-0.59375 H 1.125 c 0.734375,-0.640625 0.984375,-0.84375 1.390625,-1.171875 0.515625,-0.40625 1,-0.84375 1,-1.5 0,-0.84375 -0.734375,-1.359375 -1.625,-1.359375 -0.859375,0 -1.453125,0.609375 -1.453125,1.25 0,0.34375 0.296875,0.390625 0.375,0.390625 0.15625,0 0.359375,-0.125 0.359375,-0.375 0,-0.125 -0.046875,-0.375 -0.40625,-0.375 C 0.984375,-4.21875 1.453125,-4.375 1.78125,-4.375 c 0.703125,0 1.0625,0.546875 1.0625,1.109375 0,0.609375 -0.4375,1.078125 -0.65625,1.328125 L 0.515625,-0.265625 C 0.4375,-0.203125 0.4375,-0.1875 0.4375,0 h 2.875 z m 0,0"
             id="path5287" />
        </symbol>
      </g>
    </defs>
    <defs
       id="defs5266">
      <g
         id="g5264">
        <symbol
           style="overflow:visible"
           overflow="visible"
           id="lx-text5188-glyph0-0">
          <path
             inkscape:connector-curvature="0"
             style="stroke:none"
             d=""
             id="path5252" />
        </symbol>
        <symbol
           style="overflow:visible"
           overflow="visible"
           id="lx-text5188-glyph0-1">
          <path
             inkscape:connector-curvature="0"
             style="stroke:none"
             d="M 5.078125,-4.03125 C 5.0625,-4.0625 5.03125,-4.140625 5.03125,-4.171875 c 0,0 0.171875,-0.140625 0.28125,-0.21875 l 1.75,-1.34375 C 8,-6.4375 8.390625,-6.46875 8.6875,-6.5 8.765625,-6.515625 8.859375,-6.515625 8.859375,-6.703125 8.859375,-6.734375 8.828125,-6.8125 8.75,-6.8125 c -0.21875,0 -0.46875,0.03125 -0.703125,0.03125 -0.359375,0 -0.75,-0.03125 -1.109375,-0.03125 -0.0625,0 -0.1875,0 -0.1875,0.203125 0,0.0625 0.046875,0.09375 0.125,0.109375 0.21875,0.015625 0.296875,0.0625 0.296875,0.203125 0,0.1875 -0.296875,0.421875 -0.359375,0.46875 L 2.9375,-2.84375 3.734375,-6.046875 C 3.8125,-6.40625 3.84375,-6.5 4.5625,-6.5 c 0.25,0 0.34375,0 0.34375,-0.203125 0,-0.078125 -0.078125,-0.109375 -0.140625,-0.109375 -0.28125,0 -1,0.03125 -1.28125,0.03125 C 3.203125,-6.78125 2.5,-6.8125 2.203125,-6.8125 2.140625,-6.8125 2,-6.8125 2,-6.625 2,-6.5 2.09375,-6.5 2.296875,-6.5 c 0.125,0 0.3125,0.015625 0.421875,0.015625 0.15625,0.03125 0.21875,0.046875 0.21875,0.171875 0,0.03125 0,0.0625 -0.03125,0.1875 L 1.5625,-0.78125 c -0.09375,0.390625 -0.109375,0.46875 -0.90625,0.46875 -0.171875,0 -0.28125,0 -0.28125,0.1875 C 0.375,0 0.5,0 0.53125,0 0.8125,0 1.515625,-0.03125 1.796875,-0.03125 2,-0.03125 2.21875,-0.015625 2.4375,-0.015625 2.65625,-0.015625 2.875,0 3.078125,0 3.15625,0 3.28125,0 3.28125,-0.203125 3.28125,-0.3125 3.1875,-0.3125 3,-0.3125 c -0.375,0 -0.640625,0 -0.640625,-0.171875 0,-0.078125 0.046875,-0.296875 0.078125,-0.4375 C 2.578125,-1.453125 2.71875,-1.96875 2.84375,-2.5 l 1.484375,-1.15625 1.15625,2.6875 c 0.125,0.265625 0.125,0.296875 0.125,0.34375 0,0.3125 -0.4375,0.3125 -0.53125,0.3125 -0.109375,0 -0.21875,0 -0.21875,0.203125 C 4.859375,0 4.984375,0 5,0 5.40625,0 5.828125,-0.03125 6.21875,-0.03125 6.4375,-0.03125 6.984375,0 7.203125,0 7.25,0 7.375,0 7.375,-0.203125 7.375,-0.3125 7.265625,-0.3125 7.171875,-0.3125 c -0.40625,0 -0.53125,-0.09375 -0.6875,-0.4375 z m 0,0"
             id="path5255" />
        </symbol>
        <symbol
           style="overflow:visible"
           overflow="visible"
           id="lx-text5188-glyph1-0">
          <path
             inkscape:connector-curvature="0"
             style="stroke:none"
             d=""
             id="path5258" />
        </symbol>
        <symbol
           style="overflow:visible"
           overflow="visible"
           id="lx-text5188-glyph1-1">
          <path
             inkscape:connector-curvature="0"
             style="stroke:none"
             d="m 2.328125,-4.4375 c 0,-0.1875 0,-0.1875 -0.203125,-0.1875 -0.453125,0.4375 -1.078125,0.4375 -1.359375,0.4375 v 0.25 c 0.15625,0 0.625,0 1,-0.1875 v 3.546875 c 0,0.234375 0,0.328125 -0.6875,0.328125 H 0.8125 V 0 c 0.125,0 0.984375,-0.03125 1.234375,-0.03125 0.21875,0 1.09375,0.03125 1.25,0.03125 V -0.25 H 3.03125 c -0.703125,0 -0.703125,-0.09375 -0.703125,-0.328125 z m 0,0"
             id="path5261" />
        </symbol>
      </g>
    </defs>
  </defs>
  <sodipodi:namedview
     id="base"
     pagecolor="#ffffff"
     bordercolor="#666666"
     borderopacity="1.0"
     inkscape:pageopacity="0.0"
     inkscape:pageshadow="2"
     inkscape:zoom="0.58"
     inkscape:cx="258.96909"
     inkscape:cy="519.32479"
     inkscape:document-units="mm"
     inkscape:current-layer="ltx-render-layer"
     showgrid="false"
     inkscape:window-width="1366"
     inkscape:window-height="705"
     inkscape:window-x="-8"
     inkscape:window-y="-8"
     inkscape:window-maximized="1" />
  <metadata
     id="metadata5">
    <rdf:RDF>
      <cc:Work
         rdf:about="">
        <dc:format>image/svg+xml</dc:format>
        <dc:type
           rdf:resource="http://purl.org/dc/dcmitype/StillImage" />
        <dc:title></dc:title>
      </cc:Work>
    </rdf:RDF>
  </metadata>
  <g
     inkscape:label="Capa 1"
     inkscape:groupmode="layer"
     id="layer1">
    <text
       xml:space="preserve"
       style="font-style:normal;font-weight:normal;font-size:10.58333302px;line-height:1.25;font-family:sans-serif;letter-spacing:0px;word-spacing:0px;fill:#000000;fill-opacity:1;stroke:none;stroke-width:0.26458332"
       x="135.48491"
       y="203.02728"
       id="text949"><tspan
         sodipodi:role="line"
         id="tspan947"
         x="135.48491"
         y="212.68279"
         style="stroke-width:0.26458332" /></text>
  </g>
  <g
     rendltx:math="False"
     rendltx:newline="False"
     rendltx:fontsize="14.0"
     rendltx:depth="0.0"
     rendltx:scale="1.0"
     rendltx:packages="amsmath,amssymb"
     rendltx:preamble=""
     id="ltx-render-layer"
     inkscape:groupmode="layer"
     inkscape:label="Rendered Latex">
    <text
       id="text5695"
       y="237.69682"
       x="71.619972"
       style="font-style:normal;font-weight:normal;font-size:10.58333302px;line-height:1.25;font-family:sans-serif;letter-spacing:0px;word-spacing:0px;fill:#000000;fill-opacity:1;stroke:none;stroke-width:0.26458332"
       xml:space="preserve"><tspan
         style="stroke-width:0.26458332"
         y="247.35233"
         x="71.619972"
         id="tspan5693"
         sodipodi:role="line" /></text>
    <g
       id="g6342"
       inkscape:export-xdpi="84"
       inkscape:export-ydpi="84">
      <path
         style="fill:none;stroke:#000000;stroke-width:0.5;stroke-linecap:butt;stroke-linejoin:miter;stroke-miterlimit:4;stroke-dasharray:none;stroke-opacity:1"
         d="m 40,135.92571 h 120 v 0 0 0"
         id="path12"
         inkscape:connector-curvature="0" />
      <path
         style="fill:none;stroke:#000000;stroke-width:0.3901678;stroke-linecap:butt;stroke-linejoin:miter;stroke-miterlimit:4;stroke-dasharray:none;stroke-opacity:1"
         d="m 52.195084,140.92571 c 0,-10 0,-10 0,-10"
         id="path822"
         inkscape:connector-curvature="0" />
      <path
         style="fill:none;stroke:#000000;stroke-width:0.39016783;stroke-linecap:butt;stroke-linejoin:miter;stroke-miterlimit:4;stroke-dasharray:none;stroke-opacity:1"
         d="m 76.195084,140.92571 c 0,-10 0,-10 0,-10"
         id="path822-9"
         inkscape:connector-curvature="0" />
      <path
         style="fill:none;stroke:#000000;stroke-width:0.39016786;stroke-linecap:butt;stroke-linejoin:miter;stroke-miterlimit:4;stroke-dasharray:none;stroke-opacity:1"
         d="m 100.19508,140.92571 c 0,-10 0,-10 0,-10"
         id="path822-9-7"
         inkscape:connector-curvature="0" />
      <path
         style="fill:none;stroke:#000000;stroke-width:0.39016786;stroke-linecap:butt;stroke-linejoin:miter;stroke-miterlimit:4;stroke-dasharray:none;stroke-opacity:1"
         d="m 136.19508,140.92571 c 0,-10 0,-10 0,-10"
         id="path822-9-7-0"
         inkscape:connector-curvature="0" />
      <path
         style="fill:none;stroke:#000000;stroke-width:0.39016783;stroke-linecap:butt;stroke-linejoin:miter;stroke-miterlimit:4;stroke-dasharray:none;stroke-opacity:1"
         d="m 64.195084,140.92571 c 0,-10 0,-10 0,-10"
         id="path822-98"
         inkscape:connector-curvature="0" />
      <path
         style="fill:none;stroke:#000000;stroke-width:0.39016786;stroke-linecap:butt;stroke-linejoin:miter;stroke-miterlimit:4;stroke-dasharray:none;stroke-opacity:1"
         d="m 88.195084,140.92571 c 0,-10 0,-10 0,-10"
         id="path822-9-5"
         inkscape:connector-curvature="0" />
      <path
         style="fill:none;stroke:#000000;stroke-width:0.39016786;stroke-linecap:butt;stroke-linejoin:miter;stroke-miterlimit:4;stroke-dasharray:none;stroke-opacity:1"
         d="m 112.19508,140.92571 c 0,-10 0,-10 0,-10"
         id="path822-9-7-5"
         inkscape:connector-curvature="0" />
      <path
         style="fill:none;stroke:#000000;stroke-width:0.39016786;stroke-linecap:butt;stroke-linejoin:miter;stroke-miterlimit:4;stroke-dasharray:none;stroke-opacity:1"
         d="m 148.19508,140.92571 c 0,-10 0,-10 0,-10"
         id="path822-9-7-0-8"
         inkscape:connector-curvature="0" />
      <path
         style="fill:none;stroke:#000000;stroke-width:0.39016786;stroke-linecap:butt;stroke-linejoin:miter;stroke-miterlimit:4;stroke-dasharray:none;stroke-opacity:1"
         d="m 124.19508,140.92571 c 0,-10 0,-10 0,-10"
         id="path822-9-7-0-8-0"
         inkscape:connector-curvature="0" />
      <g
         transform="matrix(0.49994851,0,0,0.49994851,47.924211,147.7462)"
         id="lx-text5663">
        <defs
           id="defs5791">
          <g
             id="g5789">
            <symbol
               style="overflow:visible"
               overflow="visible"
               id="lx-text5663-glyph0-0">
              <path
                 inkscape:connector-curvature="0"
                 style="stroke:none"
                 d=""
                 id="path5777" />
            </symbol>
            <symbol
               style="overflow:visible"
               overflow="visible"
               id="lx-text5663-glyph0-1">
              <path
                 inkscape:connector-curvature="0"
                 style="stroke:none"
                 d="m 2.25,-1.0625 c -0.125,0.5 -0.15625,0.640625 -1.15625,0.640625 -0.28125,0 -0.421875,0 -0.421875,0.265625 C 0.671875,0 0.765625,0 1.046875,0 H 5.59375 c 2.890625,0 5.71875,-3 5.71875,-6.203125 0,-2.0625 -1.234375,-3.59375 -3.28125,-3.59375 H 3.421875 c -0.265625,0 -0.390625,0 -0.390625,0.265625 0,0.15625 0.125,0.15625 0.34375,0.15625 0.875,0 0.875,0.109375 0.875,0.265625 0,0.03125 0,0.109375 -0.0625,0.328125 z m 3.03125,-7.765625 c 0.125,-0.53125 0.1875,-0.546875 0.75,-0.546875 h 1.578125 c 1.34375,0 2.578125,0.71875 2.578125,2.703125 0,0.71875 -0.296875,3.21875 -1.6875,4.796875 -0.390625,0.46875 -1.484375,1.453125 -3.140625,1.453125 h -1.625 c -0.203125,0 -0.234375,0 -0.328125,-0.015625 -0.15625,0 -0.171875,-0.03125 -0.171875,-0.15625 0,-0.09375 0.03125,-0.1875 0.0625,-0.3125 z m 0,0"
                 id="path5780" />
            </symbol>
            <symbol
               style="overflow:visible"
               overflow="visible"
               id="lx-text5663-glyph1-0">
              <path
                 inkscape:connector-curvature="0"
                 style="stroke:none"
                 d=""
                 id="path5783" />
            </symbol>
            <symbol
               style="overflow:visible"
               overflow="visible"
               id="lx-text5663-glyph1-1">
              <path
                 inkscape:connector-curvature="0"
                 style="stroke:none"
                 d="m 2.9375,-6.375 c 0,-0.25 0,-0.265625 -0.234375,-0.265625 C 2.078125,-6 1.203125,-6 0.890625,-6 v 0.3125 c 0.203125,0 0.78125,0 1.296875,-0.265625 v 5.171875 c 0,0.359375 -0.03125,0.46875 -0.921875,0.46875 h -0.3125 V 0 c 0.34375,-0.03125 1.203125,-0.03125 1.609375,-0.03125 0.390625,0 1.265625,0 1.609375,0.03125 v -0.3125 h -0.3125 c -0.90625,0 -0.921875,-0.109375 -0.921875,-0.46875 z m 0,0"
                 id="path5786" />
            </symbol>
          </g>
        </defs>
        <g
           id="lx-text5663-surface1">
          <g
             style="fill:#000000;fill-opacity:1"
             id="g5795">
            <use
               height="100%"
               width="100%"
               xlink:href="#lx-text5663-glyph0-1"
               x="0"
               y="0"
               id="use5793" />
          </g>
          <g
             style="fill:#000000;fill-opacity:1"
             id="g5799">
            <use
               height="100%"
               width="100%"
               xlink:href="#lx-text5663-glyph1-1"
               x="11.663"
               y="2.152"
               id="use5797" />
          </g>
        </g>
      </g>
      <g
         transform="matrix(0.49994851,0,0,0.49994851,59.975677,147.7462)"
         id="lx-text5667">
        <defs
           id="defs5817">
          <g
             id="g5815">
            <symbol
               style="overflow:visible"
               overflow="visible"
               id="lx-text5667-glyph0-0">
              <path
                 inkscape:connector-curvature="0"
                 style="stroke:none"
                 d=""
                 id="path5803" />
            </symbol>
            <symbol
               style="overflow:visible"
               overflow="visible"
               id="lx-text5667-glyph0-1">
              <path
                 inkscape:connector-curvature="0"
                 style="stroke:none"
                 d="m 2.25,-1.0625 c -0.125,0.5 -0.15625,0.640625 -1.15625,0.640625 -0.28125,0 -0.421875,0 -0.421875,0.265625 C 0.671875,0 0.765625,0 1.046875,0 H 5.59375 c 2.890625,0 5.71875,-3 5.71875,-6.203125 0,-2.0625 -1.234375,-3.59375 -3.28125,-3.59375 H 3.421875 c -0.265625,0 -0.390625,0 -0.390625,0.265625 0,0.15625 0.125,0.15625 0.34375,0.15625 0.875,0 0.875,0.109375 0.875,0.265625 0,0.03125 0,0.109375 -0.0625,0.328125 z m 3.03125,-7.765625 c 0.125,-0.53125 0.1875,-0.546875 0.75,-0.546875 h 1.578125 c 1.34375,0 2.578125,0.71875 2.578125,2.703125 0,0.71875 -0.296875,3.21875 -1.6875,4.796875 -0.390625,0.46875 -1.484375,1.453125 -3.140625,1.453125 h -1.625 c -0.203125,0 -0.234375,0 -0.328125,-0.015625 -0.15625,0 -0.171875,-0.03125 -0.171875,-0.15625 0,-0.09375 0.03125,-0.1875 0.0625,-0.3125 z m 0,0"
                 id="path5806" />
            </symbol>
            <symbol
               style="overflow:visible"
               overflow="visible"
               id="lx-text5667-glyph1-0">
              <path
                 inkscape:connector-curvature="0"
                 style="stroke:none"
                 d=""
                 id="path5809" />
            </symbol>
            <symbol
               style="overflow:visible"
               overflow="visible"
               id="lx-text5667-glyph1-1">
              <path
                 inkscape:connector-curvature="0"
                 style="stroke:none"
                 d="m 1.265625,-0.765625 1.0625,-1.03125 c 1.546875,-1.375 2.140625,-1.90625 2.140625,-2.90625 0,-1.140625 -0.890625,-1.9375 -2.109375,-1.9375 -1.125,0 -1.859375,0.921875 -1.859375,1.8125 0,0.546875 0.5,0.546875 0.53125,0.546875 0.171875,0 0.515625,-0.109375 0.515625,-0.53125 0,-0.25 -0.1875,-0.515625 -0.53125,-0.515625 -0.078125,0 -0.09375,0 -0.125,0.015625 0.21875,-0.65625 0.765625,-1.015625 1.34375,-1.015625 0.90625,0 1.328125,0.8125 1.328125,1.625 C 3.5625,-3.90625 3.078125,-3.125 2.515625,-2.5 l -1.90625,2.125 C 0.5,-0.265625 0.5,-0.234375 0.5,0 H 4.203125 L 4.46875,-1.734375 H 4.234375 C 4.171875,-1.4375 4.109375,-1 4,-0.84375 3.9375,-0.765625 3.28125,-0.765625 3.0625,-0.765625 Z m 0,0"
                 id="path5812" />
            </symbol>
          </g>
        </defs>
        <g
           id="lx-text5667-surface1">
          <g
             style="fill:#000000;fill-opacity:1"
             id="g5821">
            <use
               height="100%"
               width="100%"
               xlink:href="#lx-text5667-glyph0-1"
               x="0"
               y="0"
               id="use5819" />
          </g>
          <g
             style="fill:#000000;fill-opacity:1"
             id="g5825">
            <use
               height="100%"
               width="100%"
               xlink:href="#lx-text5667-glyph1-1"
               x="11.663"
               y="2.152"
               id="use5823" />
          </g>
        </g>
      </g>
      <g
         transform="matrix(0.49994851,0,0,0.49994852,71.991928,147.69151)"
         id="lx-text5671">
        <defs
           id="defs5843">
          <g
             id="g5841">
            <symbol
               style="overflow:visible"
               overflow="visible"
               id="lx-text5671-glyph0-0">
              <path
                 inkscape:connector-curvature="0"
                 style="stroke:none"
                 d=""
                 id="path5829" />
            </symbol>
            <symbol
               style="overflow:visible"
               overflow="visible"
               id="lx-text5671-glyph0-1">
              <path
                 inkscape:connector-curvature="0"
                 style="stroke:none"
                 d="m 2.25,-1.0625 c -0.125,0.5 -0.15625,0.640625 -1.15625,0.640625 -0.28125,0 -0.421875,0 -0.421875,0.265625 C 0.671875,0 0.765625,0 1.046875,0 H 5.59375 c 2.890625,0 5.71875,-3 5.71875,-6.203125 0,-2.0625 -1.234375,-3.59375 -3.28125,-3.59375 H 3.421875 c -0.265625,0 -0.390625,0 -0.390625,0.265625 0,0.15625 0.125,0.15625 0.34375,0.15625 0.875,0 0.875,0.109375 0.875,0.265625 0,0.03125 0,0.109375 -0.0625,0.328125 z m 3.03125,-7.765625 c 0.125,-0.53125 0.1875,-0.546875 0.75,-0.546875 h 1.578125 c 1.34375,0 2.578125,0.71875 2.578125,2.703125 0,0.71875 -0.296875,3.21875 -1.6875,4.796875 -0.390625,0.46875 -1.484375,1.453125 -3.140625,1.453125 h -1.625 c -0.203125,0 -0.234375,0 -0.328125,-0.015625 -0.15625,0 -0.171875,-0.03125 -0.171875,-0.15625 0,-0.09375 0.03125,-0.1875 0.0625,-0.3125 z m 0,0"
                 id="path5832" />
            </symbol>
            <symbol
               style="overflow:visible"
               overflow="visible"
               id="lx-text5671-glyph1-0">
              <path
                 inkscape:connector-curvature="0"
                 style="stroke:none"
                 d=""
                 id="path5835" />
            </symbol>
            <symbol
               style="overflow:visible"
               overflow="visible"
               id="lx-text5671-glyph1-1">
              <path
                 inkscape:connector-curvature="0"
                 style="stroke:none"
                 d="m 2.890625,-3.515625 c 0.8125,-0.265625 1.390625,-0.953125 1.390625,-1.75 0,-0.8125 -0.875,-1.375 -1.828125,-1.375 -1,0 -1.765625,0.59375 -1.765625,1.359375 0,0.328125 0.21875,0.515625 0.515625,0.515625 0.296875,0 0.5,-0.21875 0.5,-0.515625 0,-0.484375 -0.46875,-0.484375 -0.609375,-0.484375 0.296875,-0.5 0.953125,-0.625 1.3125,-0.625 0.421875,0 0.96875,0.21875 0.96875,1.109375 0,0.125 -0.03125,0.703125 -0.28125,1.140625 C 2.796875,-3.65625 2.453125,-3.625 2.203125,-3.625 2.125,-3.609375 1.890625,-3.59375 1.8125,-3.59375 c -0.078125,0.015625 -0.140625,0.03125 -0.140625,0.125 0,0.109375 0.0625,0.109375 0.234375,0.109375 h 0.4375 c 0.8125,0 1.1875,0.671875 1.1875,1.65625 0,1.359375 -0.6875,1.640625 -1.125,1.640625 -0.4375,0 -1.1875,-0.171875 -1.53125,-0.75 0.34375,0.046875 0.65625,-0.171875 0.65625,-0.546875 0,-0.359375 -0.265625,-0.5625 -0.546875,-0.5625 -0.25,0 -0.5625,0.140625 -0.5625,0.578125 0,0.90625 0.921875,1.5625 2.015625,1.5625 1.21875,0 2.125,-0.90625 2.125,-1.921875 0,-0.8125 -0.640625,-1.59375 -1.671875,-1.8125 z m 0,0"
                 id="path5838" />
            </symbol>
          </g>
        </defs>
        <g
           id="lx-text5671-surface1">
          <g
             style="fill:#000000;fill-opacity:1"
             id="g5847">
            <use
               height="100%"
               width="100%"
               xlink:href="#lx-text5671-glyph0-1"
               x="0"
               y="0"
               id="use5845" />
          </g>
          <g
             style="fill:#000000;fill-opacity:1"
             id="g5851">
            <use
               height="100%"
               width="100%"
               xlink:href="#lx-text5671-glyph1-1"
               x="11.663"
               y="2.152"
               id="use5849" />
          </g>
        </g>
      </g>
      <g
         transform="matrix(0.49994851,0,0,0.49994851,84.013599,147.7462)"
         id="lx-text5675">
        <defs
           id="defs5869">
          <g
             id="g5867">
            <symbol
               style="overflow:visible"
               overflow="visible"
               id="lx-text5675-glyph0-0">
              <path
                 inkscape:connector-curvature="0"
                 style="stroke:none"
                 d=""
                 id="path5855" />
            </symbol>
            <symbol
               style="overflow:visible"
               overflow="visible"
               id="lx-text5675-glyph0-1">
              <path
                 inkscape:connector-curvature="0"
                 style="stroke:none"
                 d="m 2.25,-1.0625 c -0.125,0.5 -0.15625,0.640625 -1.15625,0.640625 -0.28125,0 -0.421875,0 -0.421875,0.265625 C 0.671875,0 0.765625,0 1.046875,0 H 5.59375 c 2.890625,0 5.71875,-3 5.71875,-6.203125 0,-2.0625 -1.234375,-3.59375 -3.28125,-3.59375 H 3.421875 c -0.265625,0 -0.390625,0 -0.390625,0.265625 0,0.15625 0.125,0.15625 0.34375,0.15625 0.875,0 0.875,0.109375 0.875,0.265625 0,0.03125 0,0.109375 -0.0625,0.328125 z m 3.03125,-7.765625 c 0.125,-0.53125 0.1875,-0.546875 0.75,-0.546875 h 1.578125 c 1.34375,0 2.578125,0.71875 2.578125,2.703125 0,0.71875 -0.296875,3.21875 -1.6875,4.796875 -0.390625,0.46875 -1.484375,1.453125 -3.140625,1.453125 h -1.625 c -0.203125,0 -0.234375,0 -0.328125,-0.015625 -0.15625,0 -0.171875,-0.03125 -0.171875,-0.15625 0,-0.09375 0.03125,-0.1875 0.0625,-0.3125 z m 0,0"
                 id="path5858" />
            </symbol>
            <symbol
               style="overflow:visible"
               overflow="visible"
               id="lx-text5675-glyph1-0">
              <path
                 inkscape:connector-curvature="0"
                 style="stroke:none"
                 d=""
                 id="path5861" />
            </symbol>
            <symbol
               style="overflow:visible"
               overflow="visible"
               id="lx-text5675-glyph1-1">
              <path
                 inkscape:connector-curvature="0"
                 style="stroke:none"
                 d="m 2.9375,-1.640625 v 0.859375 c 0,0.359375 -0.03125,0.46875 -0.765625,0.46875 H 1.96875 V 0 C 2.375,-0.03125 2.890625,-0.03125 3.3125,-0.03125 c 0.421875,0 0.9375,0 1.359375,0.03125 v -0.3125 h -0.21875 c -0.734375,0 -0.75,-0.109375 -0.75,-0.46875 V -1.640625 H 4.6875 v -0.3125 H 3.703125 v -4.53125 c 0,-0.203125 0,-0.265625 -0.171875,-0.265625 -0.078125,0 -0.109375,0 -0.1875,0.125 l -3.0625,4.671875 v 0.3125 z m 0.046875,-0.3125 H 0.5625 l 2.421875,-3.71875 z m 0,0"
                 id="path5864" />
            </symbol>
          </g>
        </defs>
        <g
           id="lx-text5675-surface1">
          <g
             style="fill:#000000;fill-opacity:1"
             id="g5873">
            <use
               height="100%"
               width="100%"
               xlink:href="#lx-text5675-glyph0-1"
               x="0"
               y="0"
               id="use5871" />
          </g>
          <g
             style="fill:#000000;fill-opacity:1"
             id="g5877">
            <use
               height="100%"
               width="100%"
               xlink:href="#lx-text5675-glyph1-1"
               x="11.663"
               y="2.152"
               id="use5875" />
          </g>
        </g>
      </g>
      <g
         transform="matrix(0.49994851,0,0,0.49994852,95.975677,147.69151)"
         id="lx-text5679">
        <defs
           id="defs5895">
          <g
             id="g5893">
            <symbol
               style="overflow:visible"
               overflow="visible"
               id="lx-text5679-glyph0-0">
              <path
                 inkscape:connector-curvature="0"
                 style="stroke:none"
                 d=""
                 id="path5881" />
            </symbol>
            <symbol
               style="overflow:visible"
               overflow="visible"
               id="lx-text5679-glyph0-1">
              <path
                 inkscape:connector-curvature="0"
                 style="stroke:none"
                 d="m 2.25,-1.0625 c -0.125,0.5 -0.15625,0.640625 -1.15625,0.640625 -0.28125,0 -0.421875,0 -0.421875,0.265625 C 0.671875,0 0.765625,0 1.046875,0 H 5.59375 c 2.890625,0 5.71875,-3 5.71875,-6.203125 0,-2.0625 -1.234375,-3.59375 -3.28125,-3.59375 H 3.421875 c -0.265625,0 -0.390625,0 -0.390625,0.265625 0,0.15625 0.125,0.15625 0.34375,0.15625 0.875,0 0.875,0.109375 0.875,0.265625 0,0.03125 0,0.109375 -0.0625,0.328125 z m 3.03125,-7.765625 c 0.125,-0.53125 0.1875,-0.546875 0.75,-0.546875 h 1.578125 c 1.34375,0 2.578125,0.71875 2.578125,2.703125 0,0.71875 -0.296875,3.21875 -1.6875,4.796875 -0.390625,0.46875 -1.484375,1.453125 -3.140625,1.453125 h -1.625 c -0.203125,0 -0.234375,0 -0.328125,-0.015625 -0.15625,0 -0.171875,-0.03125 -0.171875,-0.15625 0,-0.09375 0.03125,-0.1875 0.0625,-0.3125 z m 0,0"
                 id="path5884" />
            </symbol>
            <symbol
               style="overflow:visible"
               overflow="visible"
               id="lx-text5679-glyph1-0">
              <path
                 inkscape:connector-curvature="0"
                 style="stroke:none"
                 d=""
                 id="path5887" />
            </symbol>
            <symbol
               style="overflow:visible"
               overflow="visible"
               id="lx-text5679-glyph1-1">
              <path
                 inkscape:connector-curvature="0"
                 style="stroke:none"
                 d="m 4.46875,-2 c 0,-1.1875 -0.8125,-2.1875 -1.890625,-2.1875 -0.46875,0 -0.90625,0.15625 -1.265625,0.515625 V -5.625 c 0.203125,0.0625 0.53125,0.125 0.84375,0.125 1.234375,0 1.9375,-0.90625 1.9375,-1.03125 0,-0.0625 -0.03125,-0.109375 -0.109375,-0.109375 0,0 -0.03125,0 -0.078125,0.03125 C 3.703125,-6.515625 3.21875,-6.3125 2.546875,-6.3125 2.15625,-6.3125 1.6875,-6.390625 1.21875,-6.59375 1.140625,-6.625 1.125,-6.625 1.109375,-6.625 1,-6.625 1,-6.546875 1,-6.390625 V -3.4375 c 0,0.171875 0,0.25 0.140625,0.25 0.078125,0 0.09375,-0.015625 0.140625,-0.078125 C 1.390625,-3.421875 1.75,-3.96875 2.5625,-3.96875 c 0.515625,0 0.765625,0.453125 0.84375,0.640625 0.15625,0.375 0.1875,0.75 0.1875,1.25 0,0.359375 0,0.953125 -0.25,1.375 C 3.109375,-0.3125 2.734375,-0.0625 2.28125,-0.0625 c -0.71875,0 -1.296875,-0.53125 -1.46875,-1.109375 0.03125,0 0.0625,0.015625 0.171875,0.015625 0.328125,0 0.5,-0.25 0.5,-0.484375 0,-0.25 -0.171875,-0.5 -0.5,-0.5 C 0.84375,-2.140625 0.5,-2.0625 0.5,-1.609375 0.5,-0.75 1.1875,0.21875 2.296875,0.21875 3.453125,0.21875 4.46875,-0.734375 4.46875,-2 Z m 0,0"
                 id="path5890" />
            </symbol>
          </g>
        </defs>
        <g
           id="lx-text5679-surface1">
          <g
             style="fill:#000000;fill-opacity:1"
             id="g5899">
            <use
               height="100%"
               width="100%"
               xlink:href="#lx-text5679-glyph0-1"
               x="0"
               y="0"
               id="use5897" />
          </g>
          <g
             style="fill:#000000;fill-opacity:1"
             id="g5903">
            <use
               height="100%"
               width="100%"
               xlink:href="#lx-text5679-glyph1-1"
               x="11.663"
               y="2.152"
               id="use5901" />
          </g>
        </g>
      </g>
      <g
         transform="matrix(0.49994852,0,0,0.49994852,107.99193,147.69151)"
         id="lx-text5683">
        <defs
           id="defs5921">
          <g
             id="g5919">
            <symbol
               style="overflow:visible"
               overflow="visible"
               id="lx-text5683-glyph0-0">
              <path
                 inkscape:connector-curvature="0"
                 style="stroke:none"
                 d=""
                 id="path5907" />
            </symbol>
            <symbol
               style="overflow:visible"
               overflow="visible"
               id="lx-text5683-glyph0-1">
              <path
                 inkscape:connector-curvature="0"
                 style="stroke:none"
                 d="m 2.25,-1.0625 c -0.125,0.5 -0.15625,0.640625 -1.15625,0.640625 -0.28125,0 -0.421875,0 -0.421875,0.265625 C 0.671875,0 0.765625,0 1.046875,0 H 5.59375 c 2.890625,0 5.71875,-3 5.71875,-6.203125 0,-2.0625 -1.234375,-3.59375 -3.28125,-3.59375 H 3.421875 c -0.265625,0 -0.390625,0 -0.390625,0.265625 0,0.15625 0.125,0.15625 0.34375,0.15625 0.875,0 0.875,0.109375 0.875,0.265625 0,0.03125 0,0.109375 -0.0625,0.328125 z m 3.03125,-7.765625 c 0.125,-0.53125 0.1875,-0.546875 0.75,-0.546875 h 1.578125 c 1.34375,0 2.578125,0.71875 2.578125,2.703125 0,0.71875 -0.296875,3.21875 -1.6875,4.796875 -0.390625,0.46875 -1.484375,1.453125 -3.140625,1.453125 h -1.625 c -0.203125,0 -0.234375,0 -0.328125,-0.015625 -0.15625,0 -0.171875,-0.03125 -0.171875,-0.15625 0,-0.09375 0.03125,-0.1875 0.0625,-0.3125 z m 0,0"
                 id="path5910" />
            </symbol>
            <symbol
               style="overflow:visible"
               overflow="visible"
               id="lx-text5683-glyph1-0">
              <path
                 inkscape:connector-curvature="0"
                 style="stroke:none"
                 d=""
                 id="path5913" />
            </symbol>
            <symbol
               style="overflow:visible"
               overflow="visible"
               id="lx-text5683-glyph1-1">
              <path
                 inkscape:connector-curvature="0"
                 style="stroke:none"
                 d="m 1.3125,-3.265625 v -0.25 c 0,-2.515625 1.234375,-2.875 1.75,-2.875 0.234375,0 0.65625,0.0625 0.875,0.40625 -0.15625,0 -0.546875,0 -0.546875,0.4375 0,0.3125 0.234375,0.46875 0.453125,0.46875 0.15625,0 0.46875,-0.09375 0.46875,-0.484375 0,-0.59375 -0.4375,-1.078125 -1.265625,-1.078125 -1.28125,0 -2.625,1.28125 -2.625,3.484375 0,2.671875 1.15625,3.375 2.078125,3.375 1.109375,0 2.0625,-0.9375 2.0625,-2.25 0,-1.265625 -0.890625,-2.21875 -2,-2.21875 -0.671875,0 -1.046875,0.5 -1.25,0.984375 z M 2.5,-0.0625 c -0.625,0 -0.921875,-0.59375 -0.984375,-0.75 -0.1875,-0.46875 -0.1875,-1.265625 -0.1875,-1.4375 0,-0.78125 0.328125,-1.78125 1.21875,-1.78125 0.171875,0 0.625,0 0.9375,0.625 0.171875,0.359375 0.171875,0.875 0.171875,1.359375 0,0.484375 0,0.984375 -0.171875,1.34375 C 3.1875,-0.109375 2.734375,-0.0625 2.5,-0.0625 Z m 0,0"
                 id="path5916" />
            </symbol>
          </g>
        </defs>
        <g
           id="lx-text5683-surface1">
          <g
             style="fill:#000000;fill-opacity:1"
             id="g5925">
            <use
               height="100%"
               width="100%"
               xlink:href="#lx-text5683-glyph0-1"
               x="0"
               y="0"
               id="use5923" />
          </g>
          <g
             style="fill:#000000;fill-opacity:1"
             id="g5929">
            <use
               height="100%"
               width="100%"
               xlink:href="#lx-text5683-glyph1-1"
               x="11.663"
               y="2.152"
               id="use5927" />
          </g>
        </g>
      </g>
      <g
         transform="matrix(0.49994851,0,0,0.49994852,120.03799,147.69151)"
         id="lx-text5687">
        <defs
           id="defs5947">
          <g
             id="g5945">
            <symbol
               style="overflow:visible"
               overflow="visible"
               id="lx-text5687-glyph0-0">
              <path
                 inkscape:connector-curvature="0"
                 style="stroke:none"
                 d=""
                 id="path5933" />
            </symbol>
            <symbol
               style="overflow:visible"
               overflow="visible"
               id="lx-text5687-glyph0-1">
              <path
                 inkscape:connector-curvature="0"
                 style="stroke:none"
                 d="m 2.25,-1.0625 c -0.125,0.5 -0.15625,0.640625 -1.15625,0.640625 -0.28125,0 -0.421875,0 -0.421875,0.265625 C 0.671875,0 0.765625,0 1.046875,0 H 5.59375 c 2.890625,0 5.71875,-3 5.71875,-6.203125 0,-2.0625 -1.234375,-3.59375 -3.28125,-3.59375 H 3.421875 c -0.265625,0 -0.390625,0 -0.390625,0.265625 0,0.15625 0.125,0.15625 0.34375,0.15625 0.875,0 0.875,0.109375 0.875,0.265625 0,0.03125 0,0.109375 -0.0625,0.328125 z m 3.03125,-7.765625 c 0.125,-0.53125 0.1875,-0.546875 0.75,-0.546875 h 1.578125 c 1.34375,0 2.578125,0.71875 2.578125,2.703125 0,0.71875 -0.296875,3.21875 -1.6875,4.796875 -0.390625,0.46875 -1.484375,1.453125 -3.140625,1.453125 h -1.625 c -0.203125,0 -0.234375,0 -0.328125,-0.015625 -0.15625,0 -0.171875,-0.03125 -0.171875,-0.15625 0,-0.09375 0.03125,-0.1875 0.0625,-0.3125 z m 0,0"
                 id="path5936" />
            </symbol>
            <symbol
               style="overflow:visible"
               overflow="visible"
               id="lx-text5687-glyph1-0">
              <path
                 inkscape:connector-curvature="0"
                 style="stroke:none"
                 d=""
                 id="path5939" />
            </symbol>
            <symbol
               style="overflow:visible"
               overflow="visible"
               id="lx-text5687-glyph1-1">
              <path
                 inkscape:connector-curvature="0"
                 style="stroke:none"
                 d="m 4.75,-6.078125 c 0.078125,-0.109375 0.078125,-0.125 0.078125,-0.34375 H 2.40625 c -1.203125,0 -1.234375,-0.125 -1.265625,-0.3125 h -0.25 L 0.5625,-4.6875 h 0.25 c 0.03125,-0.15625 0.109375,-0.78125 0.25,-0.90625 0.0625,-0.0625 0.84375,-0.0625 0.96875,-0.0625 h 2.0625 C 3.984375,-5.5 3.203125,-4.40625 2.984375,-4.078125 2.078125,-2.734375 1.75,-1.34375 1.75,-0.328125 c 0,0.09375 0,0.546875 0.46875,0.546875 0.453125,0 0.453125,-0.453125 0.453125,-0.546875 V -0.84375 c 0,-0.546875 0.03125,-1.09375 0.109375,-1.625 0.046875,-0.234375 0.171875,-1.09375 0.625,-1.703125 z m 0,0"
                 id="path5942" />
            </symbol>
          </g>
        </defs>
        <g
           id="lx-text5687-surface1">
          <g
             style="fill:#000000;fill-opacity:1"
             id="g5951">
            <use
               height="100%"
               width="100%"
               xlink:href="#lx-text5687-glyph0-1"
               x="0"
               y="0"
               id="use5949" />
          </g>
          <g
             style="fill:#000000;fill-opacity:1"
             id="g5955">
            <use
               height="100%"
               width="100%"
               xlink:href="#lx-text5687-glyph1-1"
               x="11.663"
               y="2.152"
               id="use5953" />
          </g>
        </g>
      </g>
      <g
         transform="matrix(0.49994851,0,0,0.49994852,131.99193,147.69151)"
         id="lx-text5691">
        <defs
           id="defs5973">
          <g
             id="g5971">
            <symbol
               style="overflow:visible"
               overflow="visible"
               id="lx-text5691-glyph0-0">
              <path
                 inkscape:connector-curvature="0"
                 style="stroke:none"
                 d=""
                 id="path5959" />
            </symbol>
            <symbol
               style="overflow:visible"
               overflow="visible"
               id="lx-text5691-glyph0-1">
              <path
                 inkscape:connector-curvature="0"
                 style="stroke:none"
                 d="m 2.25,-1.0625 c -0.125,0.5 -0.15625,0.640625 -1.15625,0.640625 -0.28125,0 -0.421875,0 -0.421875,0.265625 C 0.671875,0 0.765625,0 1.046875,0 H 5.59375 c 2.890625,0 5.71875,-3 5.71875,-6.203125 0,-2.0625 -1.234375,-3.59375 -3.28125,-3.59375 H 3.421875 c -0.265625,0 -0.390625,0 -0.390625,0.265625 0,0.15625 0.125,0.15625 0.34375,0.15625 0.875,0 0.875,0.109375 0.875,0.265625 0,0.03125 0,0.109375 -0.0625,0.328125 z m 3.03125,-7.765625 c 0.125,-0.53125 0.1875,-0.546875 0.75,-0.546875 h 1.578125 c 1.34375,0 2.578125,0.71875 2.578125,2.703125 0,0.71875 -0.296875,3.21875 -1.6875,4.796875 -0.390625,0.46875 -1.484375,1.453125 -3.140625,1.453125 h -1.625 c -0.203125,0 -0.234375,0 -0.328125,-0.015625 -0.15625,0 -0.171875,-0.03125 -0.171875,-0.15625 0,-0.09375 0.03125,-0.1875 0.0625,-0.3125 z m 0,0"
                 id="path5962" />
            </symbol>
            <symbol
               style="overflow:visible"
               overflow="visible"
               id="lx-text5691-glyph1-0">
              <path
                 inkscape:connector-curvature="0"
                 style="stroke:none"
                 d=""
                 id="path5965" />
            </symbol>
            <symbol
               style="overflow:visible"
               overflow="visible"
               id="lx-text5691-glyph1-1">
              <path
                 inkscape:connector-curvature="0"
                 style="stroke:none"
                 d="m 1.625,-4.5625 c -0.453125,-0.296875 -0.5,-0.625 -0.5,-0.796875 0,-0.609375 0.65625,-1.03125 1.359375,-1.03125 0.71875,0 1.359375,0.515625 1.359375,1.234375 0,0.578125 -0.390625,1.046875 -0.984375,1.390625 z m 1.453125,0.953125 C 3.796875,-3.984375 4.28125,-4.5 4.28125,-5.15625 c 0,-0.921875 -0.875,-1.484375 -1.78125,-1.484375 -1,0 -1.8125,0.734375 -1.8125,1.671875 0,0.171875 0.015625,0.625 0.4375,1.09375 0.109375,0.109375 0.484375,0.359375 0.734375,0.53125 C 1.28125,-3.046875 0.421875,-2.5 0.421875,-1.5 c 0,1.046875 1.015625,1.71875 2.0625,1.71875 1.125,0 2.078125,-0.828125 2.078125,-1.890625 0,-0.359375 -0.109375,-0.8125 -0.5,-1.234375 C 3.875,-3.109375 3.71875,-3.203125 3.078125,-3.609375 Z m -1,0.421875 1.234375,0.78125 c 0.28125,0.1875 0.75,0.484375 0.75,1.09375 0,0.734375 -0.75,1.25 -1.5625,1.25 -0.859375,0 -1.578125,-0.609375 -1.578125,-1.4375 0,-0.578125 0.3125,-1.21875 1.15625,-1.6875 z m 0,0"
                 id="path5968" />
            </symbol>
          </g>
        </defs>
        <g
           id="lx-text5691-surface1">
          <g
             style="fill:#000000;fill-opacity:1"
             id="g5977">
            <use
               height="100%"
               width="100%"
               xlink:href="#lx-text5691-glyph0-1"
               x="0"
               y="0"
               id="use5975" />
          </g>
          <g
             style="fill:#000000;fill-opacity:1"
             id="g5981">
            <use
               height="100%"
               width="100%"
               xlink:href="#lx-text5691-glyph1-1"
               x="11.663"
               y="2.152"
               id="use5979" />
          </g>
        </g>
      </g>
      <g
         transform="matrix(0.49994851,0,0,0.49994852,143.99193,147.69151)"
         id="lx-text5699">
        <defs
           id="defs5999">
          <g
             id="g5997">
            <symbol
               style="overflow:visible"
               overflow="visible"
               id="lx-text5699-glyph0-0">
              <path
                 inkscape:connector-curvature="0"
                 style="stroke:none"
                 d=""
                 id="path5985" />
            </symbol>
            <symbol
               style="overflow:visible"
               overflow="visible"
               id="lx-text5699-glyph0-1">
              <path
                 inkscape:connector-curvature="0"
                 style="stroke:none"
                 d="m 2.25,-1.0625 c -0.125,0.5 -0.15625,0.640625 -1.15625,0.640625 -0.28125,0 -0.421875,0 -0.421875,0.265625 C 0.671875,0 0.765625,0 1.046875,0 H 5.59375 c 2.890625,0 5.71875,-3 5.71875,-6.203125 0,-2.0625 -1.234375,-3.59375 -3.28125,-3.59375 H 3.421875 c -0.265625,0 -0.390625,0 -0.390625,0.265625 0,0.15625 0.125,0.15625 0.34375,0.15625 0.875,0 0.875,0.109375 0.875,0.265625 0,0.03125 0,0.109375 -0.0625,0.328125 z m 3.03125,-7.765625 c 0.125,-0.53125 0.1875,-0.546875 0.75,-0.546875 h 1.578125 c 1.34375,0 2.578125,0.71875 2.578125,2.703125 0,0.71875 -0.296875,3.21875 -1.6875,4.796875 -0.390625,0.46875 -1.484375,1.453125 -3.140625,1.453125 h -1.625 c -0.203125,0 -0.234375,0 -0.328125,-0.015625 -0.15625,0 -0.171875,-0.03125 -0.171875,-0.15625 0,-0.09375 0.03125,-0.1875 0.0625,-0.3125 z m 0,0"
                 id="path5988" />
            </symbol>
            <symbol
               style="overflow:visible"
               overflow="visible"
               id="lx-text5699-glyph1-0">
              <path
                 inkscape:connector-curvature="0"
                 style="stroke:none"
                 d=""
                 id="path5991" />
            </symbol>
            <symbol
               style="overflow:visible"
               overflow="visible"
               id="lx-text5699-glyph1-1">
              <path
                 inkscape:connector-curvature="0"
                 style="stroke:none"
                 d="m 3.65625,-3.171875 v 0.328125 c 0,2.328125 -1.03125,2.78125 -1.609375,2.78125 -0.171875,0 -0.71875,-0.015625 -0.984375,-0.359375 0.4375,0 0.515625,-0.28125 0.515625,-0.453125 0,-0.3125 -0.234375,-0.453125 -0.453125,-0.453125 -0.15625,0 -0.453125,0.078125 -0.453125,0.46875 0,0.671875 0.53125,1.078125 1.375,1.078125 1.296875,0 2.515625,-1.359375 2.515625,-3.5 0,-2.6875 -1.15625,-3.359375 -2.046875,-3.359375 -0.546875,0 -1.03125,0.1875 -1.453125,0.625 -0.421875,0.453125 -0.640625,0.875 -0.640625,1.625 0,1.234375 0.875,2.21875 1.984375,2.21875 0.609375,0 1.015625,-0.421875 1.25,-1 z M 2.421875,-2.40625 c -0.15625,0 -0.625,0 -0.921875,-0.625 -0.1875,-0.375 -0.1875,-0.859375 -0.1875,-1.359375 0,-0.53125 0,-1 0.21875,-1.375 0.265625,-0.5 0.640625,-0.625 0.984375,-0.625 0.46875,0 0.796875,0.34375 0.96875,0.78125 0.109375,0.328125 0.15625,0.953125 0.15625,1.40625 0,0.828125 -0.34375,1.796875 -1.21875,1.796875 z m 0,0"
                 id="path5994" />
            </symbol>
          </g>
        </defs>
        <g
           id="lx-text5699-surface1">
          <g
             style="fill:#000000;fill-opacity:1"
             id="g6003">
            <use
               height="100%"
               width="100%"
               xlink:href="#lx-text5699-glyph0-1"
               x="0"
               y="0"
               id="use6001" />
          </g>
          <g
             style="fill:#000000;fill-opacity:1"
             id="g6007">
            <use
               height="100%"
               width="100%"
               xlink:href="#lx-text5699-glyph1-1"
               x="11.663"
               y="2.152"
               id="use6005" />
          </g>
        </g>
      </g>
    </g>
  </g>
</svg>
